# xmcd CD database file
#
# Track frame offsets:
#	150
#	29330
#	45434
#	58395
#	78084
#	96363
#	110010
#	123575
#	137888
#	158557
#	176303
#	190947
#	204684
#	219209
#	237090
#	258901
#	278063
#
# Disc length: 3920 seconds
#
# Revision: 0
# Processed by: cddbd v1.5.1PL2 Copyright (c) Steve Scherf et al.
# Submitted via: CDex 1.50beta10
#
DISCID=eb0f4e11
DTITLE=Various Artist - Franky Country Gold # 30
DYEAR=1900
DGENRE=Country
TTITLE0=Brooks And Dunn - Boot Scootin Boogie (Dance Mix)
TTITLE1=Dolly Parton - Romeo
TTITLE2=Kentucky Headhunters - Dumas Walker
TTITLE3=Bellamy Brothers and Buck Owens - The Ex-Files (Dance Mix)
TTITLE4=Neal Mccoy  - Hillbilly Rap
TTITLE5=Tim Mcgraw - Indian Outlaw
TTITLE6=Travis Tritt - T-R-O-U-B-L-E
TTITLE7=Brother Phelps - Any Way The Wind Blows
TTITLE8=Clarence Carter - Strokin'
TTITLE9=TRACTORS - Baby Likes To Rock It
TTITLE10=Mavericks - Oh What A Thrill
TTITLE11=Tracy Byrd - Watermelon Crawl
TTITLE12=Bellamy Brothers - Get Into The Reggie Cowboy
TTITLE13=TIM MCGRAW - I LIKE IT, I LOVE IT (DANCE MIX)
TTITLE14=John T. Horn - Geranimo (Dance Mix)
TTITLE15=CHris Ledoux - Caddilac Ranch (Dance Mix)
TTITLE16=Rednex - Old Pop In An Oak
EXTD=
EXTT0=
EXTT1=
EXTT2=
EXTT3=
EXTT4=
EXTT5=
EXTT6=
EXTT7=
EXTT8=
EXTT9=
EXTT10=
EXTT11=
EXTT12=
EXTT13=
EXTT14=
EXTT15=
EXTT16=
PLAYORDER=
